<?xml version="1.0" standalone="no"?>
<!DOCTYPE svg PUBLIC "-//W3C//DTD SVG 20010904//EN"
 "http://www.w3.org/TR/2001/REC-SVG-20010904/DTD/svg10.dtd">
<svg version="1.0" xmlns="http://www.w3.org/2000/svg"
 width="2016.000000pt" height="2016.000000pt" viewBox="0 0 2016.000000 2016.000000"
 preserveAspectRatio="xMidYMid meet">
<metadata>
Created by potrace 1.11, written by Peter Selinger 2001-2013
</metadata>
<g transform="translate(0.000000,2016.000000) scale(0.100000,-0.100000)"
fill="#000000" stroke="none">
<path d="M9718 20155 c-2 -2 -66 -6 -143 -9 -77 -4 -160 -8 -185 -11 -25 -2
-83 -6 -130 -10 -47 -3 -98 -7 -115 -9 -16 -2 -66 -7 -110 -11 -44 -4 -87 -8
-95 -10 -8 -1 -42 -6 -75 -9 -70 -8 -84 -10 -230 -31 -60 -9 -128 -19 -150
-21 -22 -3 -71 -12 -110 -19 -70 -14 -86 -17 -160 -30 -64 -11 -237 -46 -275
-55 -19 -5 -48 -11 -65 -14 -64 -11 -406 -99 -574 -147 -679 -195 -1442 -507
-2011 -822 -165 -91 -279 -156 -370 -211 -47 -28 -92 -55 -101 -61 -400 -238
-1081 -742 -1399 -1035 -9 -8 -52 -46 -95 -85 -169 -150 -421 -399 -609 -599
-61 -66 -120 -129 -131 -141 -32 -34 -247 -286 -290 -340 -22 -27 -42 -52 -45
-55 -12 -11 -161 -202 -231 -295 -142 -188 -378 -531 -449 -650 -13 -22 -27
-42 -30 -45 -12 -10 -212 -349 -283 -480 -23 -41 -56 -102 -74 -135 -111 -204
-276 -550 -403 -850 -4 -11 -17 -40 -28 -65 -95 -217 -288 -776 -371 -1075
-52 -189 -100 -373 -107 -415 -3 -14 -10 -43 -16 -65 -10 -41 -12 -48 -28
-125 -5 -25 -12 -56 -15 -70 -3 -14 -8 -36 -10 -50 -2 -14 -8 -46 -14 -73 -6
-26 -14 -64 -17 -85 -3 -20 -9 -53 -14 -72 -4 -19 -12 -57 -16 -85 -4 -27 -9
-57 -10 -65 -2 -8 -6 -33 -9 -55 -3 -22 -7 -51 -9 -65 -6 -33 -25 -165 -30
-210 -2 -19 -7 -55 -11 -80 -7 -54 -12 -95 -20 -180 -3 -36 -8 -81 -10 -101
-2 -20 -7 -74 -10 -120 -4 -46 -8 -102 -10 -124 -27 -289 -27 -1105 0 -1440 3
-33 8 -89 10 -125 3 -36 8 -83 10 -105 2 -22 7 -67 10 -100 4 -33 8 -73 10
-90 2 -16 7 -55 10 -85 3 -30 7 -66 9 -80 3 -14 7 -47 11 -75 6 -55 13 -101
29 -195 3 -19 8 -51 11 -70 2 -19 7 -45 9 -56 2 -12 7 -38 10 -58 11 -67 67
-350 88 -441 124 -544 285 -1065 480 -1550 58 -143 73 -179 118 -279 11 -25
20 -47 20 -49 0 -13 270 -568 305 -627 8 -14 49 -88 91 -165 61 -113 211 -367
294 -501 164 -262 406 -604 619 -874 66 -83 318 -386 346 -416 5 -6 44 -48 85
-94 541 -603 1203 -1175 1895 -1637 182 -122 442 -283 455 -283 6 0 10 -4 10
-10 0 -5 4 -10 9 -10 5 0 45 -21 88 -46 75 -45 132 -77 308 -171 314 -169 746
-366 1112 -506 234 -90 698 -245 858 -287 236 -62 517 -132 580 -145 44 -9 87
-18 95 -20 163 -34 432 -83 555 -100 22 -4 51 -8 65 -11 14 -2 49 -6 78 -10
29 -3 62 -7 74 -9 11 -3 46 -7 77 -10 31 -4 66 -8 78 -10 12 -2 57 -6 100 -10
43 -4 88 -8 99 -10 101 -16 300 -20 944 -20 653 0 854 4 975 20 17 2 62 7 100
11 97 10 103 11 165 18 30 3 66 8 80 11 14 2 48 7 75 10 28 3 77 10 110 15 33
5 78 12 100 15 48 8 83 13 111 19 12 2 37 7 55 10 207 35 521 102 729 156 47
12 92 23 100 25 87 18 537 157 765 237 181 64 576 219 682 268 36 17 66 30 68
30 5 0 197 90 355 168 180 88 509 266 695 377 174 104 395 244 421 267 11 10
23 18 27 18 11 0 305 208 472 334 140 106 393 308 465 372 547 483 824 764
1250 1270 188 225 541 707 696 954 22 33 46 72 54 85 151 238 328 552 464 820
79 155 127 257 251 530 44 97 157 379 220 549 170 461 334 1047 421 1501 2 11
6 30 8 43 3 12 16 84 30 160 24 130 32 181 41 245 2 15 7 47 11 70 3 23 8 56
10 72 2 17 6 46 8 65 3 19 8 58 11 85 3 28 7 66 10 85 2 19 7 64 10 100 4 36
8 79 10 95 17 147 20 306 20 955 0 655 -4 854 -19 950 -3 14 -7 61 -11 105 -4
44 -9 89 -10 100 -2 11 -9 64 -15 119 -7 54 -13 108 -16 119 -2 12 -6 39 -9
62 -4 22 -8 51 -10 65 -2 14 -6 45 -10 70 -3 25 -15 92 -25 150 -11 58 -22
121 -25 140 -3 19 -10 53 -15 75 -5 22 -11 54 -14 70 -5 27 -49 228 -61 280
-3 11 -7 30 -9 42 -10 49 -99 385 -127 478 -51 169 -130 419 -139 440 -5 11
-16 40 -24 65 -44 136 -196 528 -247 638 -16 35 -29 65 -29 67 0 16 -285 608
-330 685 -5 8 -46 82 -91 165 -72 132 -238 415 -276 470 -7 11 -68 103 -134
205 -104 157 -289 423 -334 479 -8 9 -62 79 -122 156 -116 151 -272 340 -392
475 -42 47 -80 90 -86 96 -179 202 -595 615 -769 764 -27 23 -56 48 -64 56 -8
9 -53 48 -101 87 -47 40 -88 74 -91 78 -16 18 -329 264 -460 361 -165 123
-461 325 -625 428 -128 80 -394 240 -400 240 -3 0 -26 13 -52 29 -107 65 -466
248 -708 361 -448 209 -1028 420 -1552 565 -226 62 -640 156 -838 190 -16 2
-41 7 -55 10 -14 3 -41 8 -60 11 -19 3 -62 10 -95 15 -33 5 -73 12 -90 14 -16
2 -46 7 -65 10 -40 6 -84 12 -155 20 -27 3 -61 8 -75 10 -14 2 -52 7 -85 10
-33 3 -71 8 -85 10 -14 2 -63 7 -109 10 -47 4 -92 8 -100 10 -9 1 -72 6 -141
10 -69 4 -143 10 -165 12 -49 4 -912 12 -917 8z m2019 -4556 c14 -12 16 -12 8
0 -6 10 -4 12 5 6 7 -4 57 -8 111 -8 58 0 99 -4 99 -10 0 -5 6 -5 13 2 8 6 16
9 18 7 2 -2 56 -7 119 -10 144 -8 245 -16 289 -22 19 -2 66 -7 104 -10 37 -2
87 -6 110 -9 23 -2 78 -7 122 -11 44 -3 83 -8 86 -10 4 -2 37 -6 75 -10 38 -3
114 -12 169 -20 55 -8 107 -15 115 -15 8 -1 42 -5 75 -10 33 -5 80 -11 105
-14 25 -3 56 -7 70 -10 14 -3 39 -7 55 -9 157 -22 412 -72 408 -80 -3 -5 -1
-6 4 -3 15 9 104 -4 98 -13 -3 -5 3 -6 12 -4 28 8 660 -132 698 -154 5 -3 20
-7 32 -8 13 -2 49 -10 81 -20 31 -10 66 -19 77 -21 102 -18 666 -204 658 -216
-3 -6 -1 -7 6 -3 13 8 257 -79 416 -149 17 -7 104 -45 195 -85 91 -40 168 -78
172 -84 4 -6 8 -8 8 -3 0 8 318 -154 362 -184 14 -11 29 -19 33 -19 12 0 259
-152 369 -227 213 -146 431 -318 421 -332 -2 -5 1 -8 9 -7 20 2 255 -229 364
-358 68 -81 162 -205 162 -214 0 -6 4 -12 9 -14 19 -6 135 -204 202 -342 146
-302 211 -567 226 -914 5 -131 4 -154 -8 -147 -10 6 -11 5 -4 -3 13 -14 3
-158 -21 -312 -35 -222 -154 -627 -178 -603 -4 4 -4 0 -1 -8 11 -29 -243 -505
-276 -517 -5 -2 -9 -8 -9 -14 0 -19 -109 -155 -121 -151 -4 1 -6 -4 -5 -11 3
-30 -264 -308 -420 -438 -130 -107 -292 -221 -304 -213 -6 4 -9 1 -8 -5 2 -6
-15 -21 -37 -33 -22 -12 -42 -24 -45 -28 -19 -21 -261 -146 -420 -217 -225
-100 -700 -231 -857 -235 -29 -1 -53 -6 -53 -10 0 -4 -15 -7 -32 -7 -18 1 -73
-4 -123 -10 -58 -8 -287 -12 -641 -11 l-552 0 1 -622 c1 -441 -2 -647 -11
-707 -7 -47 -12 -94 -12 -105 -2 -83 -69 -457 -82 -449 -4 3 -5 -1 -2 -9 5
-14 -30 -165 -63 -272 -113 -369 -247 -666 -436 -965 -33 -52 -64 -99 -68
-105 -5 -5 -42 -56 -83 -112 -146 -198 -450 -514 -479 -496 -6 3 -7 2 -4 -4 8
-13 -89 -91 -240 -192 -637 -429 -1395 -540 -2103 -309 -218 71 -555 238 -532
263 4 5 2 5 -5 1 -13 -7 -158 87 -223 146 -10 9 -28 22 -40 28 -11 6 -17 16
-14 22 4 6 3 8 -3 5 -5 -3 -20 4 -34 16 -13 12 -52 46 -87 75 -34 30 -59 59
-55 65 3 5 1 7 -5 4 -16 -10 -262 263 -339 376 -15 23 -43 61 -61 85 -17 24
-29 49 -26 54 4 6 3 8 -3 5 -10 -6 -166 246 -166 269 0 8 -3 14 -7 14 -13 0
-91 170 -84 182 4 6 3 8 -4 5 -11 -8 -116 229 -107 243 3 5 1 10 -5 12 -10 3
-52 118 -101 278 -65 209 -157 668 -146 727 2 12 1 20 -3 18 -16 -10 -29 249
-36 715 -3 184 -6 362 -9 395 -2 33 -6 143 -10 245 -3 102 -8 193 -11 203 -4
11 -16 17 -37 18 -18 0 -41 2 -52 4 -11 3 -111 7 -223 10 -202 6 -234 9 -251
20 -5 3 -12 1 -16 -5 -4 -6 -10 -8 -14 -5 -5 2 -62 7 -127 10 -295 13 -554 26
-604 30 -30 3 -111 7 -180 10 -69 3 -143 8 -165 10 -22 3 -98 7 -170 10 -71 3
-150 7 -175 10 -25 2 -164 11 -310 20 -146 9 -272 19 -280 21 -8 3 -69 7 -135
10 -66 2 -132 7 -147 10 -15 3 -56 7 -90 9 -35 1 -106 6 -159 10 l-96 8 -6
-39 c-3 -22 -21 -149 -40 -284 -20 -135 -41 -279 -46 -320 -6 -41 -12 -82 -12
-90 -1 -18 -18 -160 -24 -210 -3 -19 -7 -57 -10 -85 -3 -27 -14 -138 -25 -245
-11 -107 -22 -222 -25 -255 -2 -33 -11 -148 -20 -255 -9 -107 -18 -229 -20
-270 -3 -41 -7 -102 -9 -135 -3 -33 -8 -121 -11 -195 -3 -74 -8 -157 -11 -185
-5 -56 -12 -256 -14 -413 -1 -56 -6 -105 -11 -108 -5 -3 -5 -13 1 -23 5 -10 7
-20 5 -23 -2 -2 -6 -152 -9 -333 -2 -182 -5 -349 -5 -372 l-1 -42 -896 -1
-896 0 6 492 c3 271 8 503 10 515 3 12 7 113 11 225 3 112 7 219 10 238 2 19
7 103 10 185 4 83 9 157 10 166 2 10 6 68 9 130 9 162 29 410 51 639 2 19 6
69 10 110 3 41 10 109 15 150 5 41 12 104 15 140 14 153 95 793 109 867 10 52
29 213 25 217 -2 2 -29 7 -59 11 -30 4 -91 13 -135 21 -44 7 -100 16 -125 19
-34 4 -394 75 -567 112 -13 3 -20 10 -16 16 3 6 1 7 -5 3 -21 -13 -243 55
-412 126 -118 50 -206 101 -310 179 -104 79 -251 244 -233 263 4 3 1 6 -5 6
-15 0 -43 55 -34 65 4 5 2 5 -4 2 -13 -8 -67 121 -93 223 -10 41 -22 110 -26
152 l-6 78 103 1 c57 1 270 3 473 5 204 2 380 6 392 9 13 3 55 34 95 69 67 58
81 78 163 227 49 90 95 168 102 172 7 4 13 15 13 22 0 8 8 15 18 16 9 0 12 3
5 5 -9 4 -9 11 -1 29 6 14 15 22 21 18 6 -3 7 -1 3 5 -3 6 4 31 16 57 16 33
26 44 38 39 52 -22 326 -88 450 -109 92 -15 480 -75 489 -75 6 0 14 12 17 28
13 51 122 447 158 572 71 243 178 560 187 555 5 -4 6 1 3 9 -8 20 145 437 231
631 8 17 25 58 40 93 41 101 211 455 257 537 12 22 53 96 92 165 84 152 185
314 197 318 5 2 9 8 9 14 0 23 190 283 324 444 134 161 480 476 586 535 14 8
27 17 30 20 17 20 123 78 132 73 7 -4 8 -2 4 4 -8 14 217 126 344 172 142 52
387 107 485 111 11 0 56 3 99 5 59 4 81 2 87 -8 7 -11 9 -11 9 1 0 11 18 13
93 8 50 -3 108 -8 127 -11 19 -3 53 -8 75 -12 72 -11 268 -66 344 -96 120 -47
321 -152 329 -170 2 -4 8 -8 14 -8 13 0 144 -91 186 -130 18 -16 37 -30 41
-30 11 0 311 -290 311 -300 0 -4 18 -26 39 -49 105 -111 311 -406 417 -596 21
-38 47 -83 56 -100 10 -16 57 -109 104 -205 47 -96 90 -182 94 -192 16 -30
147 -343 155 -368 4 -14 13 -38 20 -55 33 -76 187 -525 180 -525 -2 0 3 -16
11 -35 8 -19 11 -35 8 -35 -4 0 -2 -6 4 -12 20 -25 177 -617 222 -839 12 -57
23 -111 25 -119 56 -252 117 -588 110 -600 -3 -5 -1 -11 4 -14 4 -3 14 -48 21
-101 l13 -95 86 -1 c47 -1 100 -2 116 -4 17 -2 176 -6 355 -10 179 -3 384 -8
455 -10 143 -5 838 -17 1035 -19 111 -1 125 1 124 16 -3 36 -15 167 -24 248
-4 47 -8 92 -8 100 0 14 -5 55 -18 155 -3 22 -21 162 -40 310 -19 149 -43 328
-54 398 -11 70 -19 131 -18 135 1 4 -2 14 -5 22 -3 8 -13 62 -22 120 -27 179
-102 542 -156 753 -28 111 -52 207 -53 212 -1 6 -13 43 -25 83 -12 40 -19 77
-15 84 4 6 3 8 -3 5 -9 -6 -35 64 -37 98 -1 6 -3 12 -7 15 -13 12 -40 101 -33
111 4 7 3 9 -4 5 -9 -5 -27 31 -34 69 -4 23 -29 33 -99 39 -41 4 -479 10 -974
13 -495 3 -902 7 -904 9 -9 8 -14 1321 -6 1558 l7 239 884 -5 c739 -4 886 -7
901 -19z"/>
<path d="M11090 15481 c0 -6 4 -13 10 -16 6 -3 7 1 4 9 -7 18 -14 21 -14 7z"/>
<path d="M7295 15440 c3 -5 8 -10 11 -10 2 0 4 5 4 10 0 6 -5 10 -11 10 -5 0
-7 -4 -4 -10z"/>
<path d="M7825 15360 c-3 -6 1 -7 9 -4 18 7 21 14 7 14 -6 0 -13 -4 -16 -10z"/>
<path d="M6595 15249 c-4 -6 -5 -12 -2 -15 2 -3 7 2 10 11 7 17 1 20 -8 4z"/>
<path d="M11091 13994 c0 -11 3 -14 6 -6 3 7 2 16 -1 19 -3 4 -6 -2 -5 -13z"/>
<path d="M7301 13964 c0 -11 3 -14 6 -6 3 7 2 16 -1 19 -3 4 -6 -2 -5 -13z"/>
<path d="M7302 13850 c0 -14 2 -19 5 -12 2 6 2 18 0 25 -3 6 -5 1 -5 -13z"/>
<path d="M7268 13769 c-61 -16 -159 -82 -245 -163 -50 -47 -94 -82 -98 -78 -5
4 -5 1 -1 -5 4 -7 -9 -30 -32 -55 -127 -142 -311 -435 -451 -718 -190 -383
-376 -872 -524 -1378 -29 -100 -55 -180 -58 -178 -2 2 -4 -5 -5 -17 0 -12 -3
-36 -8 -53 l-7 -31 103 -7 c100 -7 121 -9 278 -20 41 -3 109 -8 150 -11 217
-14 394 -26 470 -30 47 -3 112 -8 145 -10 33 -2 112 -7 175 -10 63 -4 140 -8
170 -10 30 -2 114 -6 185 -10 72 -3 204 -10 295 -16 91 -5 171 -9 178 -9 8 0
10 -5 6 -12 -6 -10 -4 -10 8 0 12 10 38 12 95 8 43 -3 147 -8 232 -12 l153 -6
-7 43 c-10 59 -13 75 -26 136 -5 29 -7 58 -3 65 4 7 3 9 -2 5 -4 -4 -23 62
-41 150 -42 198 -39 187 -58 257 -9 32 -14 61 -11 64 3 3 2 10 -3 16 -9 11
-40 121 -46 161 -1 11 -8 33 -14 49 -7 16 -10 35 -7 42 3 7 2 14 -2 16 -4 2
-20 46 -35 98 -34 116 -139 436 -166 506 -11 29 -17 54 -14 58 4 3 1 6 -5 6
-7 0 -12 5 -12 10 0 6 -30 82 -66 168 -71 169 -169 369 -240 489 -24 41 -41
80 -37 86 3 7 3 9 -2 5 -4 -4 -42 41 -83 100 -78 110 -224 265 -277 293 -20
11 -39 14 -57 8z"/>
<path d="M13880 13536 c0 -2 18 -79 39 -172 56 -242 83 -382 76 -394 -3 -5 -2
-10 3 -10 5 0 15 -33 22 -72 7 -40 14 -82 16 -93 19 -99 25 -148 20 -161 -3
-8 -2 -13 2 -10 5 3 19 -59 31 -137 12 -78 24 -153 27 -167 4 -26 58 -418 73
-530 4 -35 8 -81 7 -101 -1 -21 1 -35 4 -32 6 6 38 -280 36 -330 0 -20 2 -37
5 -37 3 0 9 -33 12 -72 22 -246 38 -401 42 -409 5 -8 42 -11 110 -8 17 1 37 1
45 0 83 -4 905 0 948 4 215 23 293 39 443 91 193 67 366 168 513 298 46 41 87
72 91 68 5 -4 5 -2 2 5 -4 6 15 37 41 70 62 74 115 162 152 254 46 110 60 174
66 294 6 102 4 115 -20 180 -52 137 -155 268 -331 421 -74 64 -201 161 -273
207 -25 16 -40 32 -36 39 4 6 3 8 -4 5 -15 -10 -43 3 -35 16 3 5 2 7 -4 4 -6
-4 -32 8 -59 25 -27 17 -74 44 -104 60 -30 16 -78 41 -105 56 -147 79 -513
239 -695 304 -202 72 -371 127 -543 177 -109 31 -194 61 -190 65 4 4 1 4 -8 1
-11 -4 -346 70 -406 90 -7 2 -13 3 -13 1z"/>
<path d="M7750 13280 c0 -5 5 -10 11 -10 5 0 7 5 4 10 -3 6 -8 10 -11 10 -2 0
-4 -4 -4 -10z"/>
<path d="M12236 12887 c3 -10 9 -15 12 -12 3 3 0 11 -7 18 -10 9 -11 8 -5 -6z"/>
<path d="M13995 12489 c-4 -6 -5 -12 -2 -15 2 -3 7 2 10 11 7 17 1 20 -8 4z"/>
<path d="M10505 8873 c3 -109 8 -315 10 -458 11 -594 17 -678 64 -894 11 -51
18 -97 15 -102 -3 -5 -1 -9 3 -9 5 0 15 -21 21 -47 48 -181 164 -435 265 -580
84 -121 147 -193 237 -268 132 -110 245 -161 382 -173 88 -8 120 -3 233 31 39
12 76 21 82 21 7 -1 10 2 8 7 -8 11 33 31 47 23 6 -4 8 -3 5 2 -3 6 15 23 41
39 52 32 96 70 151 127 29 31 38 35 51 25 13 -10 13 -10 3 3 -10 13 -4 24 33
64 24 27 44 51 44 55 0 3 11 18 25 33 14 15 25 29 25 32 0 3 15 29 34 58 50
79 120 222 159 323 37 97 97 300 97 329 0 10 4 14 12 10 7 -4 8 -3 4 4 -4 6 0
51 8 99 9 48 18 113 21 143 3 30 8 73 10 95 12 96 3 1113 -10 1151 -2 9 -83
12 -282 14 -153 1 -312 3 -353 5 -41 2 -226 6 -410 9 -362 7 -609 13 -873 22
l-168 6 6 -199z"/>
<path d="M9240 6520 c-9 -6 -10 -10 -3 -10 6 0 15 5 18 10 8 12 4 12 -15 0z"/>
<path d="M11950 6279 c0 -5 5 -7 10 -4 6 3 10 8 10 11 0 2 -4 4 -10 4 -5 0
-10 -5 -10 -11z"/>
<path d="M11595 4651 c-3 -5 -2 -12 3 -15 5 -3 9 1 9 9 0 17 -3 19 -12 6z"/>
</g>
</svg>
