<?xml version="1.0" standalone="no"?>
<!DOCTYPE svg PUBLIC "-//W3C//DTD SVG 20010904//EN"
 "http://www.w3.org/TR/2001/REC-SVG-20010904/DTD/svg10.dtd">
<svg version="1.0" xmlns="http://www.w3.org/2000/svg"
 width="1639.000000pt" height="1639.000000pt" viewBox="0 0 1639.000000 1639.000000"
 preserveAspectRatio="xMidYMid meet">
<metadata>
Created by potrace 1.11, written by Peter Selinger 2001-2013
</metadata>
<g transform="translate(0.000000,1639.000000) scale(0.100000,-0.100000)"
fill="#000000" stroke="none">
<path d="M8065 12841 l0 -661 660 0 c783 -1 908 -3 1330 -25 33 -2 74 -4 90
-4 27 -1 35 -9 67 -68 62 -117 108 -241 218 -589 37 -114 161 -664 185 -814 3
-19 8 -46 10 -60 3 -14 8 -36 10 -50 7 -34 43 -256 50 -305 3 -22 10 -65 15
-95 5 -30 12 -75 15 -100 3 -25 8 -56 10 -70 2 -14 7 -43 9 -65 3 -22 12 -92
20 -155 8 -63 18 -140 21 -170 4 -30 8 -66 10 -80 2 -14 7 -52 10 -85 3 -33 8
-76 10 -95 2 -19 7 -62 10 -95 10 -115 17 -180 21 -205 2 -14 6 -65 10 -115 3
-49 9 -121 13 -158 4 -37 5 -70 1 -72 -12 -7 -1384 19 -2120 41 -118 3 -269 7
-335 9 -66 2 -132 4 -147 4 -25 1 -27 5 -38 74 -14 86 -17 109 -25 162 -11 72
-41 247 -65 378 -39 210 -50 269 -54 275 -2 4 -7 23 -10 42 -11 68 -25 136
-56 265 -50 210 -60 251 -107 425 -25 91 -48 179 -53 195 -37 137 -171 545
-210 640 -4 11 -32 81 -61 155 -29 74 -65 163 -80 197 -16 34 -40 91 -55 125
-125 298 -371 710 -576 965 -541 673 -1206 929 -1903 732 -763 -216 -1421
-946 -1957 -2169 -79 -180 -105 -244 -201 -495 -114 -298 -274 -805 -372
-1180 -74 -284 -95 -368 -95 -387 0 -18 -6 -19 -68 -14 -37 4 -78 8 -92 11
-14 2 -61 9 -106 15 -44 6 -89 12 -100 14 -10 2 -39 7 -64 10 -25 3 -54 8 -65
10 -11 2 -42 7 -68 10 -27 4 -59 9 -70 12 -40 8 -192 36 -217 41 -78 13 -319
74 -357 90 -50 20 -56 17 -88 -45 -92 -178 -151 -270 -199 -315 -100 -94 -63
-87 -478 -87 l-367 0 5 -52 c21 -222 134 -424 309 -553 22 -17 46 -35 52 -42
29 -27 247 -125 360 -162 135 -45 391 -110 493 -126 19 -3 42 -8 50 -10 8 -2
29 -7 45 -9 17 -3 55 -10 85 -16 30 -6 71 -13 90 -16 19 -3 58 -9 85 -14 28
-5 68 -12 90 -15 22 -3 51 -7 65 -10 14 -2 45 -6 70 -9 25 -3 54 -8 65 -10 11
-2 43 -7 70 -10 92 -12 130 -18 133 -20 1 -2 -4 -45 -13 -97 -8 -52 -17 -112
-20 -134 -3 -22 -10 -65 -15 -95 -5 -30 -12 -75 -15 -100 -3 -25 -8 -56 -10
-70 -2 -14 -7 -45 -10 -70 -3 -25 -10 -72 -15 -105 -5 -33 -12 -87 -16 -120
-3 -33 -8 -67 -9 -75 -2 -8 -6 -44 -10 -80 -4 -36 -9 -72 -10 -81 -2 -9 -6
-52 -10 -95 -4 -43 -9 -81 -10 -84 -2 -3 -6 -39 -10 -80 -3 -41 -8 -86 -10
-100 -2 -14 -7 -59 -10 -100 -3 -41 -8 -86 -10 -100 -2 -14 -6 -59 -10 -100
-3 -41 -8 -91 -10 -110 -2 -19 -6 -73 -10 -120 -3 -47 -7 -105 -10 -130 -7
-67 -15 -176 -20 -255 -2 -38 -6 -108 -9 -155 -28 -410 -40 -718 -50 -1200 -6
-259 -9 -569 -7 -601 1 -14 68 -16 659 -16 l659 -1 1 126 c1 146 13 769 17
857 1 33 6 139 9 235 4 96 9 190 11 210 2 19 6 94 10 165 9 168 12 213 19 310
3 44 8 114 11 155 3 41 7 98 10 125 3 28 7 80 10 118 3 37 7 86 9 110 3 23 7
69 11 102 3 33 8 83 11 110 3 28 7 71 9 98 12 124 15 145 20 182 5 40 11 89
20 180 3 28 8 61 10 75 2 14 7 50 10 81 3 31 7 65 9 76 3 11 7 44 10 74 3 30
8 65 10 79 3 14 10 61 16 106 6 44 12 90 14 101 3 12 7 43 11 70 12 86 15 108
20 133 3 14 7 41 9 60 8 60 26 164 32 183 5 15 13 17 47 13 23 -3 80 -8 127
-11 47 -4 99 -8 117 -10 18 -2 72 -7 120 -10 48 -3 113 -8 143 -11 30 -2 91
-7 135 -10 44 -2 98 -6 120 -8 22 -3 87 -7 145 -11 58 -4 125 -8 149 -10 24
-3 89 -7 145 -10 56 -3 130 -7 166 -10 36 -3 106 -8 155 -10 50 -3 119 -7 155
-9 36 -3 115 -8 175 -11 61 -3 146 -8 190 -10 44 -3 127 -7 185 -10 58 -3 141
-7 185 -10 44 -3 132 -7 195 -10 63 -3 160 -7 215 -10 55 -3 152 -7 215 -10
437 -17 562 -24 566 -28 3 -3 11 -113 19 -282 3 -55 7 -131 10 -170 6 -86 14
-411 21 -810 6 -334 6 -345 30 -547 25 -218 107 -576 179 -788 153 -447 360
-814 643 -1141 127 -148 236 -248 432 -402 60 -47 216 -141 325 -197 235 -120
502 -201 750 -226 152 -16 412 -8 565 17 254 43 570 158 758 276 29 18 54 33
57 33 10 0 179 120 263 188 127 102 317 292 402 402 19 25 37 47 40 50 30 27
163 222 234 343 215 367 382 824 450 1232 10 55 19 111 21 125 3 14 8 48 11
75 3 28 8 61 10 75 19 124 26 963 12 1446 l-5 190 651 0 c723 0 781 3 1066 50
52 9 154 31 225 50 72 19 138 36 147 38 92 24 324 115 473 187 448 215 881
587 1129 969 27 41 56 86 66 100 9 14 42 72 73 130 198 371 296 771 292 1183
-2 195 -6 226 -60 472 -18 83 -102 302 -158 409 -60 118 -186 317 -217 346 -3
3 -24 30 -46 60 -77 102 -244 278 -375 395 -304 270 -667 506 -1127 730 -96
47 -175 85 -177 85 -2 0 -36 15 -77 34 -40 18 -149 64 -243 100 -225 89 -228
90 -240 92 -5 2 -61 21 -123 43 -128 46 -530 172 -631 197 -9 2 -43 11 -76 20
-136 36 -179 46 -365 90 -165 39 -496 108 -565 119 -33 5 -149 25 -171 29 -12
2 -39 7 -60 10 -22 3 -50 8 -64 11 -14 3 -41 7 -60 9 -86 12 -128 18 -175 26
-27 5 -75 12 -105 15 -30 4 -66 8 -80 10 -14 2 -47 6 -75 10 -27 3 -66 7 -85
10 -19 2 -80 9 -135 15 -55 6 -118 12 -140 15 -22 2 -71 7 -110 10 -38 3 -88
8 -110 10 -22 2 -85 7 -140 10 -55 4 -120 8 -145 11 -25 2 -101 6 -170 9 -69
4 -156 9 -195 12 -38 2 -464 7 -945 10 l-875 5 0 -661z m-2528 -740 c158 -80
363 -317 536 -620 193 -339 399 -868 546 -1406 38 -139 143 -573 155 -645 2
-14 11 -59 20 -100 8 -41 26 -136 40 -210 22 -121 31 -172 41 -243 2 -12 6
-32 9 -45 l5 -23 -142 6 c-169 7 -317 13 -447 20 -52 3 -149 7 -215 10 -66 3
-156 7 -200 10 -90 5 -289 16 -380 20 -92 4 -284 15 -345 20 -30 2 -102 7
-160 10 -58 3 -130 8 -160 10 -30 2 -98 7 -150 10 -52 3 -129 8 -170 11 -107
8 -183 13 -280 19 -47 3 -103 8 -125 10 -22 2 -83 7 -135 10 -52 3 -115 8
-140 10 -131 12 -175 17 -178 20 -3 3 74 304 87 337 5 13 9 25 9 28 0 8 22 90
37 140 8 25 31 99 51 165 21 66 39 125 40 130 14 73 208 599 300 813 104 242
315 666 345 692 3 3 8 12 12 20 8 18 13 25 106 165 189 283 396 492 578 582
128 63 220 71 310 24z m6238 -156 c17 -3 41 -8 55 -11 14 -3 39 -8 55 -11 17
-2 55 -11 85 -18 30 -8 69 -17 87 -20 39 -6 228 -50 308 -71 113 -29 130 -34
320 -88 191 -55 481 -150 610 -200 546 -214 948 -429 1255 -672 204 -162 391
-384 463 -550 115 -265 35 -662 -196 -963 -111 -146 -296 -310 -442 -392 -33
-18 -61 -37 -63 -41 -2 -4 -7 -8 -12 -8 -4 0 -41 -15 -82 -34 -201 -94 -433
-157 -643 -173 -99 -8 -1372 -10 -1379 -2 -5 5 -10 55 -21 204 -4 50 -8 97
-10 105 -2 8 -7 60 -11 115 -3 55 -8 108 -9 117 -2 9 -6 49 -10 90 -3 40 -8
84 -10 98 -2 14 -7 57 -10 95 -3 39 -8 81 -10 95 -2 14 -7 50 -10 80 -4 30 -8
69 -10 85 -2 17 -6 57 -10 90 -3 33 -8 67 -10 75 -3 8 -7 40 -10 70 -3 30 -12
102 -21 160 -8 58 -17 123 -20 145 -2 22 -7 51 -9 65 -3 14 -7 41 -10 60 -3
19 -7 46 -10 60 -2 14 -7 43 -10 65 -3 23 -7 52 -10 65 -3 14 -7 39 -10 55 -3
17 -7 44 -10 60 -7 41 -44 244 -50 275 -3 14 -7 36 -10 50 -3 14 -8 39 -11 55
-34 192 -168 734 -202 824 -5 13 9 13 103 -4z m-3080 -4519 c121 -4 310 -9
420 -11 110 -3 299 -7 420 -10 232 -5 577 -12 1089 -20 170 -3 311 -7 313 -9
9 -9 17 -401 17 -876 1 -447 -4 -639 -18 -682 -3 -7 -7 -33 -10 -58 -3 -25 -8
-56 -11 -70 -3 -14 -8 -41 -11 -60 -3 -19 -17 -78 -31 -130 -146 -563 -460
-1006 -839 -1186 -45 -22 -87 -41 -95 -43 -143 -42 -287 -56 -396 -39 -366 60
-715 397 -928 893 -91 213 -164 489 -190 718 -3 26 -8 68 -11 95 -3 26 -7 160
-9 297 -4 284 -15 733 -20 815 -2 30 -6 123 -10 205 -4 83 -7 152 -7 155 -1
22 7 26 55 24 28 -1 151 -5 272 -8z"/>
</g>
</svg>
