<?xml version="1.0" standalone="no"?>
<!DOCTYPE svg PUBLIC "-//W3C//DTD SVG 20010904//EN"
 "http://www.w3.org/TR/2001/REC-SVG-20010904/DTD/svg10.dtd">
<svg version="1.0" xmlns="http://www.w3.org/2000/svg"
 width="400.000000pt" height="400.000000pt" viewBox="0 0 400.000000 400.000000"
 preserveAspectRatio="xMidYMid meet">
<metadata>
Created by potrace 1.11, written by Peter Selinger 2001-2013
</metadata>
<g transform="translate(0.000000,400.000000) scale(0.100000,-0.100000)"
fill="#000000" stroke="none">
<path d="M2205 3989 c-4 -6 -45 -9 -108 -8 -130 3 -246 -9 -276 -28 -13 -8
-51 -16 -88 -17 -52 -2 -68 -6 -82 -23 -12 -16 -32 -22 -90 -28 -48 -4 -92
-15 -123 -31 -26 -13 -53 -24 -61 -24 -7 0 -54 -17 -103 -39 -209 -91 -224
-100 -224 -132 0 -11 -15 -26 -37 -38 -55 -28 -82 -61 -92 -113 -6 -35 -21
-61 -60 -104 -44 -50 -51 -64 -51 -100 0 -24 -5 -55 -10 -70 -8 -21 -7 -32 5
-51 11 -16 13 -28 7 -36 -12 -15 -75 -141 -132 -260 -35 -76 -40 -94 -35 -131
4 -27 1 -62 -10 -99 -9 -31 -16 -60 -17 -64 0 -5 -5 -17 -11 -28 -12 -22 -39
-209 -38 -265 0 -19 0 -61 0 -93 0 -48 5 -62 26 -83 26 -26 25 -44 -2 -44 -22
0 -120 -67 -133 -90 -5 -10 -12 -65 -16 -122 -7 -140 12 -198 144 -442 42 -76
155 -169 239 -196 21 -7 45 -18 53 -24 44 -33 58 -36 112 -21 60 15 61 14 79
-50 6 -22 17 -47 24 -55 19 -23 85 -155 85 -172 0 -8 10 -30 23 -49 12 -19 42
-74 66 -124 30 -62 64 -110 106 -155 33 -36 74 -82 89 -103 16 -21 53 -54 82
-73 30 -19 64 -48 76 -65 13 -17 41 -40 63 -51 22 -12 56 -34 75 -49 19 -16
40 -29 47 -29 7 0 17 -9 23 -21 16 -30 71 -50 295 -109 110 -29 219 -59 242
-66 40 -14 51 -13 190 22 142 34 233 66 233 80 0 3 -8 3 -17 -1 -11 -3 -14 -3
-8 2 6 5 37 31 70 58 76 64 103 94 112 125 3 14 19 41 34 60 16 19 40 62 54
95 15 33 57 123 95 200 37 77 83 181 101 230 18 50 36 92 39 95 3 3 7 19 8 35
2 17 13 55 24 85 11 30 23 71 27 91 4 19 21 55 38 80 16 24 67 120 113 212
l83 169 -6 138 c-5 126 -8 141 -31 175 -38 55 -36 121 4 177 17 22 30 51 30
63 0 27 -29 55 -57 55 -39 0 -59 55 -54 150 1 31 -3 84 -9 119 -10 54 -9 66 5
88 15 22 15 26 1 42 -21 23 -20 80 1 103 14 16 18 47 21 176 8 270 6 299 -27
377 -16 38 -41 84 -55 102 -33 41 -189 173 -205 173 -7 0 -33 19 -59 43 -26
24 -74 58 -107 76 -33 18 -91 59 -130 90 -73 60 -153 111 -174 111 -6 0 -39
13 -74 30 -96 45 -412 82 -432 49z"/>
</g>
</svg>
