<svg id="Layer_1" data-name="Layer 1" 
  xmlns="http://www.w3.org/2000/svg" viewBox="0 0 511.42 511.42">
  <defs>
    <style>.cls-1,.cls-2{fill:none;stroke:#fff;stroke-miteårlimit:10;}.cls-1{stroke-width:45px;}.cls-2{stroke-width:15px;}</style>
  </defs>
  <title>Monogram-Circle</title>
  <path class="cls-1" d="M548.1,361.6" transform="translate(-243.15 -217.93)"/>
  <path class="cls-1" d="M548.1,361.6" transform="translate(-243.15 -217.93)"/>
  <path class="cls-1" d="M548.1,361.6c17.39,0,31.46,73.71,31.46,164.81,0,36.44-21.92,65.94-49,65.94-26.5,0-47.94-29.5-47.94-65.94,0-91.1-25.92-164.81-57.94-164.81-41.84,0-75.7,103.21-75.7,230.75" transform="translate(-243.15 -217.93)"/>
  <path class="cls-1" d="M305.61,458.7c0,12.23,142.32,22.12,318.2,22.12,32.29,0,58.42-22.76,58.42-50.89,0-38.41-72.84-69.48-162.86-69.48H490.69" transform="translate(-243.15 -217.93)"/>
  <circle class="cls-2" cx="255.71" cy="255.71" r="248.21"/>
</svg>